<svg xmlns="http://www.w3.org/2000/svg" xmlns:xodm="http://www.corel.com/coreldraw/odm/2003" xmlns:xlink="http://www.w3.org/1999/xlink" xmlns:svgjs="http://svgjs.dev/svgjs" clip-rule="evenodd" fill-rule="evenodd" height="300" image-rendering="optimizeQuality" shape-rendering="geometricPrecision" text-rendering="geometricPrecision" viewBox="0 0 1706.66 1706.66" width="300"><g width="100%" height="100%" transform="matrix(1,0,0,1,0,0)"><g id="Layer_x0020_1"><path d="m1514.86 1306.48h-221.51c-47.35 0-47.34-71.94 0-71.94h221.53c47.36 0 47.35 71.94-.02 71.94zm-1442.93-98.33c9.24-9.87 19.24-18.98 29.93-27.28l-26.15-97.58c-2.8-10.44 3.39-21.22 13.89-24.03l155.33-41.61c10.43-2.86 21.23 3.4 24.03 13.87l26.15 97.57c21.42 2.93 42.29 8.54 62.35 16.75l71.45-71.48c7.37-7.34 20.39-7.34 27.76 0l113.71 113.71c7.66 7.68 7.67 20.09 0 27.76l-71.44 71.44 16.7 62.34 97.61 26.18c10.46 2.81 16.68 13.56 13.87 24.03l-41.63 155.33c-2.81 10.46-13.61 16.72-24.03 13.87l-97.62-26.16c-13.27 17.15-28.55 32.45-45.61 45.68l4.33 16.15h1166.32c25.26 0 45.82-20.56 45.82-45.82v-1086.6h-1562.78v735.87zm188.02 334.04c-71.08 0-133.59-48-152.01-116.72-26.81-100.09 49.05-198.24 152.19-198.24 71.08 0 133.59 48 152 116.72 26.83 100.17-49.11 198.24-152.17 198.24zm409.67-864.63h-465.64c-47.35 0-47.34-71.94 0-71.94h465.64c47.34 0 47.37 71.94 0 71.94zm184.45 627.28 144.31-530.94c9.58-35.29 63.25-20.83 53.63 14.56l.03.01-144.31 530.96c-9.61 35.41-63.26 20.89-53.63-14.57l-.03-.01zm-151.55-258.19 143.37 143.38c33.85 33.85-17.59 84.15-50.85 50.87l-168.81-168.82c-14.04-14.04-14.04-36.85 0-50.89l168.81-168.79c33.49-33.49 84.35 17.39 50.86 50.87zm501.07 0-143.39-143.37c-33.5-33.49 17.38-84.37 50.87-50.88l168.83 168.8c14.05 14.04 14.04 36.85 0 50.89l-168.83 168.81c-33.28 33.28-84.75-17.02-50.89-50.87l143.4-143.38zm385.28 630h-1471.12c-64.94 0-117.77-52.83-117.77-117.78v-1411.13c0-64.94 52.83-117.76 117.77-117.76h1471.12c64.94 0 117.78 52.81 117.78 117.76v1411.12c0 64.95-52.83 117.79-117.78 117.79zm-1318.96-1338.55c-41.77 0-75.76-33.98-75.76-75.76 0-41.76 33.98-75.76 75.76-75.76 41.77 0 75.75 33.98 75.75 75.76 0 41.76-33.97 75.76-75.75 75.76zm209.63 0c-41.76 0-75.75-33.98-75.75-75.76 0-41.76 33.98-75.76 75.75-75.76s75.75 33.98 75.75 75.76c0 41.76-33.98 75.76-75.75 75.76zm209.65 0c-41.77 0-75.75-33.98-75.75-75.76 0-41.76 33.98-75.76 75.75-75.76 41.76 0 75.76 33.98 75.76 75.76-.02 41.76-34 75.76-75.76 75.76zm816.76-56.14h-449.06c-25.83 0-25.82-39.24 0-39.24h449.06c25.83 0 25.83 39.24 0 39.24zm8.89 1137.53h-221.51c-47.35 0-47.34-71.94 0-71.94h221.53c47.35 0 47.36 71.94-.02 71.94zm0 113.02h-221.51c-47.35 0-47.34-71.94 0-71.94h221.53c47.35 0 47.35 71.94-.02 71.94z" fill="#ed8337" fill-opacity="1" data-original-color="#000000ff" stroke="none" stroke-opacity="1"></path></g></g></svg>