<svg xmlns="http://www.w3.org/2000/svg" xmlns:xlink="http://www.w3.org/1999/xlink" xmlns:svgjs="http://svgjs.dev/svgjs" id="Layer_1" viewBox="0 0 24 24" data-name="Layer 1" width="300" height="300"><g width="100%" height="100%" transform="matrix(1.13,0,0,1.13,-1.5599999999999987,-1.5599999999999987)"><g fill="rgb(0,0,0)"><path d="m21 1.5h-18c-.83 0-1.5.67-1.5 1.5v18c0 .83.67 1.5 1.5 1.5h18c.83 0 1.5-.67 1.5-1.5v-18c0-.83-.67-1.5-1.5-1.5zm-18 1h18c.28 0 .5.22.5.5v2.5h-19v-2.5c0-.28.22-.5.5-.5zm18 19h-18c-.28 0-.5-.22-.5-.5v-14.5h19v14.5c0 .28-.22.5-.5.5z" fill="#ed8337" fill-opacity="1" data-original-color="#000000ff" stroke="none" stroke-opacity="1"></path><circle cx="5" cy="4" r=".75" fill="#ed8337" fill-opacity="1" data-original-color="#000000ff" stroke="none" stroke-opacity="1"></circle><circle cx="8" cy="4" r=".75" fill="#ed8337" fill-opacity="1" data-original-color="#000000ff" stroke="none" stroke-opacity="1"></circle><circle cx="11" cy="4" r=".75" fill="#ed8337" fill-opacity="1" data-original-color="#000000ff" stroke="none" stroke-opacity="1"></circle><path d="m10.13 14.37h-.93l1.01-1.01c.2-.2.2-.51 0-.71s-.51-.2-.71 0l-1.87 1.87c-.14.14-.19.36-.11.54.08.19.26.31.46.31h.93l-1.28 1.28c-.2.2-.2.51 0 .71.1.1.23.15.35.15s.26-.05.35-.15l2.13-2.13c.14-.14.19-.36.11-.54-.08-.19-.26-.31-.46-.31z" fill="#ed8337" fill-opacity="1" data-original-color="#000000ff" stroke="none" stroke-opacity="1"></path><path d="m20.5 11.75c-.2-.35-.52-.6-.91-.7-.34-.09-.69-.06-1 .08-.16-.11-.32-.2-.49-.29-.08-.75-.72-1.35-1.49-1.35s-1.42.59-1.49 1.35c-.17.08-.33.18-.49.29-.07-.03-.14-.03-.21-.05-.08-.18-.23-.33-.4-.43v-.65c0-.55-.45-1-1-1h-5.15c-.17-.3-.48-.5-.85-.5h-2.5c-.56 0-1 .44-1 1v9c0 .56.44 1 1 1h9c.56 0 1-.44 1-1v-1.6s.08-.01.12-.03c.16.11.32.2.49.29.08.75.72 1.35 1.49 1.35s1.42-.59 1.49-1.35c.17-.08.33-.18.49-.29.31.14.67.17 1 .08.39-.1.71-.35.91-.7.39-.67.2-1.51-.41-1.96 0-.1.01-.19.01-.29s0-.2-.01-.29c.61-.45.8-1.29.41-1.96zm-7.5-1.25h-5v-.5h5zm-8.5 8v-9h2.5v1c0 .56.44 1 1 1h4.92c-.08.08-.16.15-.22.25-.39.67-.2 1.51.41 1.96 0 .1-.01.19-.01.29s0 .19.01.29c-.61.45-.8 1.29-.41 1.96.18.31.47.52.8.64v1.61zm14.6-4.5c0 .16-.02.31-.05.46-.04.21.06.42.24.52l.15.09c.24.14.32.44.18.68s-.44.32-.68.18l-.16-.09c-.18-.11-.41-.08-.57.05-.23.2-.5.35-.78.45-.2.07-.33.26-.33.47v.18c0 .28-.22.5-.5.5s-.5-.22-.5-.5v-.18c0-.21-.13-.4-.33-.47-.29-.1-.55-.25-.78-.45-.09-.08-.21-.12-.32-.12-.09 0-.17.02-.25.07l-.16.09c-.12.07-.25.08-.38.05-.13-.04-.24-.12-.3-.23-.14-.24-.06-.54.18-.68l.15-.09c.18-.11.28-.32.24-.52-.03-.15-.05-.3-.05-.46s.02-.31.05-.46c.04-.21-.06-.42-.24-.52l-.15-.09c-.24-.14-.32-.44-.18-.68.07-.12.17-.2.3-.23s.26-.02.38.05l.16.09c.18.11.41.08.57-.05.23-.2.5-.35.78-.45.2-.07.33-.26.33-.47v-.18c0-.28.22-.5.5-.5s.5.22.5.5v.18c0 .21.13.4.33.47.28.1.55.25.78.45.16.14.39.16.57.05l.16-.09c.24-.14.55-.05.68.18s.06.54-.18.68l-.15.09c-.18.11-.28.32-.24.52.03.15.05.3.05.46z" fill="#ed8337" fill-opacity="1" data-original-color="#000000ff" stroke="none" stroke-opacity="1"></path><path d="m16.6 12.5c-.83 0-1.5.67-1.5 1.5s.67 1.5 1.5 1.5 1.5-.67 1.5-1.5-.67-1.5-1.5-1.5zm0 2c-.28 0-.5-.22-.5-.5s.22-.5.5-.5.5.22.5.5-.22.5-.5.5z" fill="#ed8337" fill-opacity="1" data-original-color="#000000ff" stroke="none" stroke-opacity="1"></path></g></g></svg>