<svg xmlns="http://www.w3.org/2000/svg" xmlns:xlink="http://www.w3.org/1999/xlink" xmlns:svgjs="http://svgjs.dev/svgjs" id="Layer_1" height="300" viewBox="0 0 70 70" width="300"><g width="100%" height="100%" transform="matrix(1.09,0,0,1.09,-3.1500000000000057,-3.1500000000000057)"><g id="Web_Services"><path d="m57.5899658 3.0649414h-45.170166c-3.4399414 0-6.2397461 2.7900391-6.2397461 6.2199707v41.4602051c0 3.4299316 2.7998047 6.2299805 6.2397461 6.2299805h10.7800293c.1101074.579834.5200195 1.0698242 1.0900879 1.2797852l1.6098633.6101074-.7099609 1.5700684c-.2900391.659912-.1499024 1.4399413.3500976 1.9399413l2.1799316 2.1799316c.5.5100098 1.2900391.6501465 1.9401855.3601074l1.579834-.7199707.6000977 1.619873c.2600098.6699219.9099121 1.1201172 1.6298828 1.1201172h3.0800781c.7199707 0 1.369873-.4501953 1.619873-1.1201172l.6101074-1.619873 1.5700684.7199707c.6499023.2900391 1.4299316.1499023 1.9399414-.3601074l2.1799316-2.1699219c.5100098-.5100098.6501465-1.2900391.3500977-1.9499512l-.7099609-1.5800781 1.6098633-.6000977c.5700684-.2099609.9799805-.6999512 1.0900879-1.2797852h10.7800293c3.4399414 0 6.2299805-2.8000488 6.2299805-6.2299805v-41.4602049c0-3.4299316-2.7900391-6.2199707-6.2299805-6.2199707zm-1.3801269 5.4599609c1.1101074 0 2.0200195.9101563 2.0200195 2.0200195 0 1.130127-.9099121 2.0400391-2.0200195 2.0400391-1.119873 0-2.0297852-.9099121-2.0297852-2.0400391 0-1.1098632.9099121-2.0200195 2.0297852-2.0200195zm-6.7399903 0c1.1201172 0 2.0300293.9101563 2.0300293 2.0200195 0 1.130127-.9099121 2.0400391-2.0300293 2.0400391-1.119873 0-2.0200195-.9099121-2.0200195-2.0400391 0-1.1098632.9001465-2.0200195 2.0200195-2.0200195zm-6.7299804 0c1.1201172 0 2.0300293.9101563 2.0300293 2.0200195 0 1.130127-.9099121 2.0400391-2.0300293 2.0400391-1.119873 0-2.0300293-.9099121-2.0300293-2.0400391 0-1.1098632.9101562-2.0200195 2.0300293-2.0200195zm2.1101074 47.9201661c-.1039658.0389061-1.8196144.6809273-1.7099609.6398926-.4501953.1699219-.8100586.5200195-.9902344.9599609-.1899414.4399414-.1799316.9501953.0200195 1.380127l.7602539 1.6699219-1.920166 1.920166-1.6599121-.7602539c-.4399414-.1899414-.9399414-.1999512-1.380127-.0200195-.4499512.1801758-.8000488.5500488-.9699707.9902344l-.6398926 1.7099609h-2.7102051l-.6398926-1.7099609c-.1699219-.4401855-.5200195-.8100586-.9599609-.9902344-.4399414-.1799316-.9399414-.1799316-1.380127.0200195l-1.6699219.7602539-1.9099121-1.920166.75-1.6699219c.4162483-.8950081-.0276222-1.9842148-.9699707-2.3400879-.1039677-.0389061-1.8196125-.6809273-1.7099609-.6398926 0-.1651649 0-2.8021507 0-2.6999512l1.7099609-.6501465c.4499512-.1599121.8100586-.5100098.9899902-.9499512.1899414-.4499512.1799316-.9499512-.0200195-1.3798828l-.75-1.670166 1.9099121-1.9199219 1.6699219.75c.9180641.4267273 1.9867935-.0344543 2.3400879-.9699707l.6398926-1.7099609h2.7102051l.6398926 1.7099609c.3492241.9247437 1.4114342 1.3965874 2.3500977.9699707l1.6599121-.75 1.920166 1.9199219-.7602539 1.6599121c-.1999512.4401855-.2099609.9401855-.0200195 1.380127.1801758.4499512.5400391.8000488.9902344.9699707l1.7099609.6401367zm16.9699707-5.6999512c0 2.329834-1.9001465 4.2299805-4.2299805 4.2299805h-10.7399902v-1.420166c0-.7199707-.4501953-1.369873-1.130127-1.619873l-1.6098633-.6101074.7099609-1.5700684c.3000488-.6599121.1599121-1.4399414-.3500977-1.9499512l-2.1799315-2.1799317c-.5100098-.5100098-1.2900391-.6499023-1.9399414-.3500977l-1.5700684.7202148-.6101074-1.6201171c-.25-.6699219-.8999023-1.1298828-1.619873-1.1298828h-3.0800781c-.7199707 0-1.369873.4599609-1.6298828 1.1298828l-.6000977 1.6201172-1.579834-.7202148c-.6501465-.2998047-1.4301758-.1499023-1.9401855.3601074l-2.1799316 2.1699219c-.5.5100098-.6401367 1.2900391-.3500977 1.9401855l.7099609 1.579834-1.6098633.6101074c-.6799316.25-1.1298828.8999023-1.1298828 1.619873v1.420166h-10.7402344c-2.3398438 0-4.2397461-1.9001465-4.2397461-4.2299805v-34.6901855h3.9697266c1.0600586 0 1.920166-.8598633 1.920166-1.9299316v-1.3999023c0-.4301758.369873-.8000488.8200684-.8000488l11.9099121.0400391c.2399902 0 .4599609.119873.5900879.3198242l1.9399414 2.9101563c.3500977.5300293.9499512.8598633 1.6000977.8598633h30.8898926v34.6901854z" fill="#ed8337" fill-opacity="1" data-original-color="#000000ff" stroke="none" stroke-opacity="1"></path><path d="m18.5799561 29.6650391c-3.3300781 0-6.0300293 2.6999512-6.0300293 6.0300293 0 3.329834 2.6999512 6.0200195 6.0300293 6.0200195s6.0200195-2.6901855 6.0200195-6.0200195c0-3.3300782-2.6899414-6.0300293-6.0200195-6.0300293z" fill="#ed8337" fill-opacity="1" data-original-color="#000000ff" stroke="none" stroke-opacity="1"></path><path d="m51.4300537 29.6650391c-3.3300781 0-6.0302734 2.6999512-6.0302734 6.0300293 0 3.329834 2.7001953 6.0200195 6.0302734 6.0200195 3.329834 0 6.0297852-2.6901855 6.0297852-6.0200195 0-3.3300782-2.6999512-6.0300293-6.0297852-6.0300293z" fill="#ed8337" fill-opacity="1" data-original-color="#000000ff" stroke="none" stroke-opacity="1"></path><path d="m23.0799561 43.9951172h-9.0100098c-.5500488 0-1 .4499512-1 1 0 .5598145.4499512 1 1 1h9.0100098c.5498047 0 1-.4401855 1-1 0-.5500488-.4501954-1-1-1z" fill="#ed8337" fill-opacity="1" data-original-color="#000000ff" stroke="none" stroke-opacity="1"></path><path d="m23.0799561 48.375h-9.0100098c-.5500488 0-1 .4499512-1 1 0 .5600586.4499512 1 1 1h9.0100098c.5498047 0 1-.4399414 1-1 0-.5500488-.4501954-1-1-1z" fill="#ed8337" fill-opacity="1" data-original-color="#000000ff" stroke="none" stroke-opacity="1"></path><path d="m55.9398193 43.9951172h-9.0097656c-.5600586 0-1 .4499512-1 1 0 .5598145.4399414 1 1 1h9.0097656c.5500488 0 1-.4401855 1-1 0-.5500488-.4499511-1-1-1z" fill="#ed8337" fill-opacity="1" data-original-color="#000000ff" stroke="none" stroke-opacity="1"></path><path d="m55.9398193 48.375h-9.0097656c-.5600586 0-1 .4499512-1 1 0 .5600586.4399414 1 1 1h9.0097656c.5500488 0 1-.4399414 1-1 0-.5500488-.4499511-1-1-1z" fill="#ed8337" fill-opacity="1" data-original-color="#000000ff" stroke="none" stroke-opacity="1"></path><path d="m34.9998779 29.6650391c-3.3198242 0-6.0200195 2.6999512-6.0200195 6.0300293 0 3.3200684 2.7001953 6.0200195 6.0200195 6.0200195 3.3300781 0 6.0300293-2.6999512 6.0300293-6.0200195 0-3.3300782-2.6999511-6.0300293-6.0300293-6.0300293zm0 10.0500488c-2.2199707 0-4.0200195-1.8000488-4.0200195-4.0200195s1.8000488-4.0300293 4.0200195-4.0300293 4.0300293 1.8100586 4.0300293 4.0300293-1.8100586 4.0200195-4.0300293 4.0200195z" fill="#ed8337" fill-opacity="1" data-original-color="#000000ff" stroke="none" stroke-opacity="1"></path><path d="m13.8099365 21.4550781v3.7797852c0 .8500977.6899414 1.5400391 1.5400391 1.5400391h39.0400391c.8498535 0 1.5498047-.6899414 1.5498047-1.5400391v-3.7797852c0-.8500977-.6999512-1.5500488-1.5498047-1.5500488h-39.0400391c-.8500977 0-1.5400391.6999512-1.5400391 1.5500488z" fill="#ed8337" fill-opacity="1" data-original-color="#000000ff" stroke="none" stroke-opacity="1"></path><path d="m34.9998779 49.5749512c-2.9602051 0-5.5200195 2.4164162-5.5200195 5.5200195 0 3.0002632 2.4465256 5.5200195 5.5200195 5.5200195 3.0490074 0 5.5300293-2.4729424 5.5300293-5.5200195 0-3.1475296-2.6057319-5.5200195-5.5300293-5.5200195z" fill="#ed8337" fill-opacity="1" data-original-color="#000000ff" stroke="none" stroke-opacity="1"></path></g></g></svg>