<svg xmlns="http://www.w3.org/2000/svg" xmlns:xlink="http://www.w3.org/1999/xlink" xmlns:svgjs="http://svgjs.dev/svgjs" clip-rule="evenodd" fill-rule="evenodd" height="300" image-rendering="optimizeQuality" shape-rendering="geometricPrecision" text-rendering="geometricPrecision" viewBox="0 0 1707 1707" width="300"><g width="100%" height="100%" transform="matrix(1,0,0,1,0,0)"><g id="Layer_x0020_1"><path d="m917 999-217-369h608c26 0 52 13 67 33 12 16 16 34 11 51l-82 285c-8 30-21 48-35 59-12-35-45-59-83-59zm149-114c-37 0-67-30-67-67s30-67 67-67 67 30 67 67-30 67-67 67zm0-94c-15 0-27 12-27 27s12 27 27 27 27-12 27-27-12-27-27-27zm0 167c-77 0-140-63-140-140s63-140 140-140 140 63 140 140-63 140-140 140zm0-240c-55 0-100 45-100 100s45 100 100 100 100-45 100-100-45-100-100-100z" fill="#ed8337" fill-opacity="1" data-original-color="#000000ff" stroke="none" stroke-opacity="1"></path><path d="m755 1001-223-380h-160c-29 0-53-24-53-54 0-29 24-53 53-53h191c19 0 36 10 46 26l269 459h-94c-10 0-20 1-29 2z" fill="#ed8337" fill-opacity="1" data-original-color="#000000ff" stroke="none" stroke-opacity="1"></path><g id="_366033688"><path d="m794 1421c-40 0-73-33-73-73s33-72 73-72 72 32 72 72-32 73-72 73z" fill="#ed8337" fill-opacity="1" data-original-color="#000000ff" stroke="none" stroke-opacity="1"></path><path d="m1150 1421c-40 0-72-33-72-73s32-72 72-72 73 32 73 72-33 73-73 73z" fill="#ed8337" fill-opacity="1" data-original-color="#000000ff" stroke="none" stroke-opacity="1"></path></g><path d="m1050 1316h-155c-14-43-54-73-101-73-38 0-71 19-90 49-37-26-62-69-62-118 0-78 63-142 142-142h402c30 0 55 25 55 55s-25 55-55 55h-402c-18 0-33 15-33 32 0 18 15 33 33 33h402c30 0 55 24 55 55 0 8-2 16-6 23-19-26-50-42-85-42-47 0-87 30-100 73z" fill="#ed8337" fill-opacity="1" data-original-color="#000000ff" stroke="none" stroke-opacity="1"></path><path d="m1628 1499h-1549c-44 0-79-35-79-78v-965-170c0-43 35-79 79-79h1549c43 0 79 36 79 79v1135c0 43-36 78-79 78zm-1093-1092c-36 0-65-29-65-65 0-37 29-66 65-66s66 30 66 66-30 65-66 65zm0-91c-14 0-25 11-25 25s11 26 25 26 26-12 26-26-12-25-26-25zm-164 91c-36 0-65-29-65-65 0-37 29-66 65-66 37 0 66 30 66 66s-29 65-66 65zm0-91c-14 0-25 11-25 25s11 26 25 26 26-12 26-26-12-25-26-25zm-163 91c-36 0-66-29-66-65 0-37 30-66 66-66s65 30 65 66-29 65-65 65zm0-91c-14 0-26 11-26 25s12 26 26 26 25-12 25-26-11-25-25-25zm1459 160h-1627v945c0 21 17 38 39 38h1549c21 0 39-17 39-38z" fill="#ed8337" fill-opacity="1" data-original-color="#000000ff" stroke="none" stroke-opacity="1"></path></g></g></svg>