<svg xmlns="http://www.w3.org/2000/svg" xmlns:xlink="http://www.w3.org/1999/xlink" xmlns:svgjs="http://svgjs.dev/svgjs" id="OBJECT" height="300" viewBox="0 0 32 32" width="300"><g width="100%" height="100%" transform="matrix(1.06,0,0,1.06,-0.9600000000000009,-0.9600000000000009)"><path d="m28 1h-24a3 3 0 0 0 -3 3v24a3 3 0 0 0 3 3h24a3 3 0 0 0 3-3v-24a3 3 0 0 0 -3-3zm-24 2h24a1 1 0 0 1 1 1v3h-26v-3a1 1 0 0 1 1-1zm24 26h-24a1 1 0 0 1 -1-1v-19h26v19a1 1 0 0 1 -1 1z" fill="#ed8337" fill-opacity="1" data-original-color="#000000ff" stroke="none" stroke-opacity="1"></path><path d="m8.71 17.29a1 1 0 0 0 -1.42 0l-2 2a1 1 0 0 0 0 1.42l2 2a1 1 0 0 0 1.42 0 1 1 0 0 0 0-1.42l-1.3-1.29 1.3-1.29a1 1 0 0 0 0-1.42z" fill="#ed8337" fill-opacity="1" data-original-color="#000000ff" stroke="none" stroke-opacity="1"></path><path d="m24.71 17.29a1 1 0 0 0 -1.42 1.42l1.3 1.29-1.3 1.29a1 1 0 0 0 0 1.42 1 1 0 0 0 1.42 0l2-2a1 1 0 0 0 0-1.42z" fill="#ed8337" fill-opacity="1" data-original-color="#000000ff" stroke="none" stroke-opacity="1"></path><path d="m19 17v-1a3 3 0 0 0 -6 0v1a1 1 0 0 0 -1 .84l-1 6a1 1 0 0 0 1 1.16h8a1 1 0 0 0 1-1.16l-1-6a1 1 0 0 0 -1-.84zm-4-1a1 1 0 0 1 2 0v1h-2zm-1.82 7 .67-4h4.3l.67 4z" fill="#ed8337" fill-opacity="1" data-original-color="#000000ff" stroke="none" stroke-opacity="1"></path><path d="m25.5 6h.5a1 1 0 0 0 0-2h-.5a1 1 0 0 0 0 2z" fill="#ed8337" fill-opacity="1" data-original-color="#000000ff" stroke="none" stroke-opacity="1"></path><path d="m21.5 6h.5a1 1 0 0 0 0-2h-.5a1 1 0 0 0 0 2z" fill="#ed8337" fill-opacity="1" data-original-color="#000000ff" stroke="none" stroke-opacity="1"></path></g></svg>