<svg xmlns="http://www.w3.org/2000/svg" xmlns:xlink="http://www.w3.org/1999/xlink" xmlns:svgjs="http://svgjs.dev/svgjs" clip-rule="evenodd" fill-rule="evenodd" stroke-linejoin="round" stroke-miterlimit="2" viewBox="0 0 32 32" width="300" height="300"><g width="100%" height="100%" transform="matrix(1.15,0,0,1.15,-2.3965530395507812,-2.3921146988868713)"><g transform="translate(-192)"><g transform="matrix(3.857 0 0 2.857 -409.143 -1122.21)"><path d="m156.37 400.65v-6.3c0-.29.174-.525.389-.525h6.482c.215 0 .389.235.389.525v6.3c0 .29-.174.525-.389.525h-2.583c-.034.481.07.947.314 1.4h.972c.072 0 .13.078.13.175s-.058.175-.13.175h-3.888c-.072 0-.13-.078-.13-.175s.058-.175.13-.175h.968c.234-.473.34-.939.316-1.4h-2.581c-.215 0-.389-.235-.389-.525zm7-.875v-5.425c0-.097-.058-.175-.129-.175h-6.482c-.071 0-.129.078-.129.175v5.425zm-2.71 2.8c-.206-.454-.292-.921-.263-1.4h-.797c.02.461-.068.928-.27 1.4zm-2.604-6.163c0-.026.004-.051.012-.074l.29-.84v-.623c0-.097.058-.175.13-.175h3.024c.072 0 .13.078.13.175v.623l.29.84c.008.023.012.048.012.074 0 .255-.103.526-.259.693v1.97c0 .097-.058.175-.129.175h-3.112c-.071 0-.129-.078-.129-.175v-1.962c0-.003 0-.006 0-.008-.156-.167-.259-.438-.259-.693zm.501-.662-.241.697c.007.111.045.223.101.312.057.091.134.158.222.158.087 0 .165-.067.222-.158.062-.098.102-.226.102-.347v-.662zm3.127.697c-.046-.132-.196-.566-.241-.697h-.406v.662c0 .121.04.249.102.347.057.091.135.158.222.158.088 0 .165-.067.222-.158.056-.089.094-.201.101-.312zm-.258.814c-.021.004-.043.006-.065.006-.182 0-.346-.146-.454-.347-.107.201-.272.347-.453.347-.182 0-.346-.146-.454-.347-.108.201-.272.347-.454.347-.181 0-.346-.146-.453-.347-.108.201-.272.347-.454.347-.022 0-.044-.002-.065-.006v.589h2.852zm-2.852.939v.7h2.852v-.7zm.648-2.45v.662c0 .121.04.249.102.347.057.091.135.158.222.158.088 0 .165-.067.222-.158.062-.098.102-.226.102-.347v-.662zm1.556 0h-.648v.662c0 .121.04.249.102.347.057.091.134.158.222.158.087 0 .165-.067.222-.158.062-.098.102-.226.102-.347z" fill="#ed8337" fill-opacity="1" data-original-color="#000000ff" stroke="none" stroke-opacity="1"></path></g></g></g></svg>