<svg xmlns="http://www.w3.org/2000/svg" xmlns:xlink="http://www.w3.org/1999/xlink" xmlns:xodm="http://www.corel.com/coreldraw/odm/2003" xml:space="preserve" width="0.166661in" height="0.166661in" style="shape-rendering:geometricPrecision; text-rendering:geometricPrecision; image-rendering:optimizeQuality; fill-rule:evenodd; clip-rule:evenodd" viewBox="0 0 166.66 166.66"> <defs> <style type="text/css"> .fil0 {fill:none} .fil1 {fill:#ED8337} </style> </defs> <g id="Layer_x0020_1"> <metadata id="CorelCorpID_0Corel-Layer"></metadata> <rect class="fil0" x="-0.01" y="-0" width="166.66" height="166.66"></rect> <g id="_2647501441056"> <path class="fil1" d="M2.67 62.77l29.51 0c0.1,-9.44 2.8,-18.26 7.41,-25.78 -2.77,-0.83 -5.71,-1.28 -8.75,-1.28 -14.95,0 -27.37,10.81 -29.87,25.04 -0.19,1.06 0.62,2.02 1.69,2.02l0 0zm152.98 78.29c-1.57,1.61 -4.17,1.65 -5.78,0.09l-24.68 -23.94c-1.61,-1.57 -1.65,-4.17 -0.09,-5.78l0.48 -0.49 -13.74 -13.48c-7.86,6.74 -18.08,10.82 -29.24,10.82 -24.82,0 -44.94,-20.12 -44.94,-44.94 0,-24.82 20.12,-44.94 44.94,-44.94 24.81,0 44.94,20.12 44.94,44.94 0,9.56 -2.99,18.43 -8.08,25.71l14.02 13.76 0.54 -0.55c1.56,-1.61 4.16,-1.65 5.78,-0.09l24.68 23.94c1.61,1.57 1.65,4.17 0.09,5.78l-8.91 9.18zm-120.93 7.69l5.12 -2.96c0.54,-0.31 1.15,-0.37 1.71,-0.22l33.64 9c4.24,1.14 8.25,0.63 12,-1.68 13.64,-8.4 27.29,-16.8 40.93,-25.19l-6.75 -6.55c-0.91,-0.88 -1.6,-1.89 -2.08,-2.98l-25.14 14.64c-3.98,2.32 -8.36,3.02 -12.89,2.26 -6.99,-1.14 -13.51,-3.22 -20.3,-5.04 -1.21,-0.32 -1.93,-1.56 -1.6,-2.77 0.32,-1.21 1.56,-1.93 2.77,-1.6 5.53,1.48 11,3.26 16.61,4.42 2.85,0.35 5.19,-0.55 5.98,-3.5 0.72,-2.68 -0.97,-5.2 -3.5,-6.07 -7.68,-1.41 -15.13,-4.1 -20.98,-6.22 -8.49,-3.07 -10.76,-3.78 -19.13,1.07l-19.06 11.04 12.65 22.36zm-20.61 -27.24l21.08 37.25c0.4,0.72 0.14,1.64 -0.57,2.05 -2.33,1.36 -4.91,2.64 -7.17,4.06 -0.72,0.41 -1.64,0.14 -2.04,-0.57l-21.08 -37.24c-0.4,-0.72 -0.14,-1.64 0.57,-2.05l7.17 -4.06c0.72,-0.4 1.64,-0.14 2.04,0.57l0 0zm0.04 6.63c-0.2,-1.4 -1.5,-2.37 -2.9,-2.16 -1.4,0.2 -2.37,1.5 -2.16,2.9 0.2,1.4 1.5,2.37 2.9,2.17 1.4,-0.2 2.37,-1.5 2.16,-2.91zm68.46 -84.18c-6.19,0 -11.22,5.02 -11.22,11.22 0,6.2 5.02,11.22 11.22,11.22 6.2,0 11.22,-5.02 11.22,-11.22 0,-6.2 -5.02,-11.22 -11.22,-11.22zm21.54 42.73c6.29,-5.8 10.23,-14.12 10.23,-23.35 0,-17.55 -14.22,-31.78 -31.78,-31.78 -17.55,0 -31.77,14.23 -31.77,31.78 0,9.24 3.94,17.55 10.23,23.35 2.39,-9.68 11.13,-16.85 21.54,-16.85 10.41,0 19.15,7.17 21.54,16.85l0 0zm31.41 -85.08c-8.47,0 -15.33,6.87 -15.33,15.33 0,8.46 6.86,15.33 15.33,15.33 8.47,0 15.33,-6.87 15.33,-15.33 0,-8.47 -6.86,-15.33 -15.33,-15.33zm-104.72 0c-8.47,0 -15.33,6.87 -15.33,15.33 0,8.46 6.87,15.33 15.33,15.33 8.46,0 15.33,-6.87 15.33,-15.33 0,-8.47 -6.87,-15.33 -15.33,-15.33zm102.2 61.17l30.69 0c1.07,0 1.88,-0.96 1.69,-2.02 -2.5,-14.23 -14.92,-25.04 -29.86,-25.04 -3.41,0 -6.69,0.56 -9.74,1.6 4.5,7.45 7.12,16.15 7.22,25.46z"></path> </g> </g> </svg>