<svg xmlns="http://www.w3.org/2000/svg" xmlns:xlink="http://www.w3.org/1999/xlink" xmlns:xodm="http://www.corel.com/coreldraw/odm/2003" xml:space="preserve" width="0.166661in" height="0.166661in" style="shape-rendering:geometricPrecision; text-rendering:geometricPrecision; image-rendering:optimizeQuality; fill-rule:evenodd; clip-rule:evenodd" viewBox="0 0 166.66 166.66"> <defs> <style type="text/css"> .fil0 {fill:none} .fil1 {fill:#ED8337;fill-rule:nonzero} </style> </defs> <g id="Layer_x0020_1"> <metadata id="CorelCorpID_0Corel-Layer"></metadata> <rect class="fil0" x="-0.01" y="-0" width="166.66" height="166.66"></rect> <g id="_2647505125712"> <g id="Digital_Campaign"> <g> <path class="fil1" d="M158.54 132.25l-1.83 0 0 -72.41c0,-8.86 -7.21,-16.07 -16.07,-16.07l-26.27 0c-0.02,-2.82 -0.82,-5.66 -2.49,-8.15 -4,-5.99 -11.75,-8.18 -18.21,-5.43l-8.98 -13.46c-1.74,-2.61 -5.67,-2.09 -6.72,0.75 -3.31,8.72 -8.06,17.27 -14.67,26.3l-35.04 0c-8.86,0 -16.1,7.22 -16.1,16.07l0 72.41 -4.02 0c-1.29,0 -2.35,1.06 -2.35,2.35l0 12.95c0,5.59 4.56,10.15 10.15,10.15l134.8 0c5.62,0 10.15,-4.56 10.15,-10.15l0 -12.95c0,-1.29 -1.04,-2.35 -2.35,-2.35zm-141.69 -72.41c0,-6.27 5.12,-11.37 11.4,-11.37l31.47 0c-2,2.56 -4.19,5.17 -6.49,7.85 -1.57,-1.43 -4,-1.65 -5.83,-0.4l-18.99 12.64c-2.19,1.43 -2.78,4.42 -1.32,6.6l0.38 0.57c-5.17,5.03 -6.13,13.07 -2.02,19.27 4.2,6.28 12.1,8.36 18.57,5.52l0.38 0.57c1.26,2 4.08,2.93 6.63,1.36l1.48 -0.99 21.55 17.04c5.91,4.67 14.51,0.61 14.81,-6.79 0.12,-2.96 -1.15,-5.69 -3.46,-7.52l-16.92 -13.4 1.5 -1.01c1.41,-0.94 2.14,-2.49 2.12,-4.07 13.7,-4.63 29.7,-8.58 45.94,-8.06 3.14,0.06 4.98,-3.38 3.29,-5.92l-11.45 -17.18c1.76,-1.71 3.01,-3.81 3.74,-6.09l27 0c6.28,0 11.38,5.1 11.38,11.37l0 72.41c-47.04,0 -88.15,0 -135.16,0l0 -72.41zm64.86 -39.1c7.02,10.54 19.41,29.6 34.76,52.17 -16.52,-0.23 -32.65,3.83 -46.37,8.49l-14.05 -21.13c10.37,-11.81 19.83,-24.92 25.66,-39.53zm-40.37 75.81c-4.37,1.43 -9.31,-0.14 -11.99,-4.16 -2.65,-4.02 -2.23,-9.17 0.8,-12.64l11.19 16.8zm61.85 44.51c0,1.43 -1.15,2.58 -2.56,2.58l-34.59 0c-1.43,0 -2.58,-1.15 -2.58,-2.58l0 -4.11 39.74 0 0 4.11z"></path> <path class="fil1" d="M108.76 127.55l6.86 0c0.73,0 1.29,-0.59 1.29,-1.29l0 -21.53c0,-0.7 -0.56,-1.29 -1.29,-1.29l-6.86 0c-0.7,0 -1.29,0.59 -1.29,1.29l0 21.53c0,0.7 0.59,1.29 1.29,1.29z"></path> <path class="fil1" d="M135.11 127.55l6.91 0c0.68,0 1.29,-0.59 1.29,-1.29l0 -27.43c0,-0.73 -0.61,-1.3 -1.29,-1.3l-6.91 0c-0.69,0 -1.27,0.57 -1.27,1.3l0 27.43c0,0.7 0.59,1.29 1.27,1.29z"></path> <path class="fil1" d="M94.89 127.55l7.57 0c0.7,0 1.29,-0.59 1.29,-1.29l0 -11.54c0,-0.73 -0.59,-1.29 -1.29,-1.29l-7.57 0c-0.73,0 -1.29,0.56 -1.29,1.29l0 11.54c0,0.7 0.56,1.29 1.29,1.29z"></path> <path class="fil1" d="M121.94 127.55l6.86 0c0.73,0 1.29,-0.59 1.29,-1.29l0 -17.23c0,-0.73 -0.56,-1.29 -1.29,-1.29l-6.86 0c-0.7,0 -1.3,0.56 -1.3,1.29l0 17.23c0,0.7 0.59,1.29 1.3,1.29l0 0z"></path> <path class="fil1" d="M115.2 29.8c0.74,1.06 2.21,1.32 3.27,0.58l8.85 -6.18c1.06,-0.74 1.32,-2.21 0.58,-3.27 -0.74,-1.06 -2.2,-1.32 -3.27,-0.58l-8.85 6.18c-1.07,0.74 -1.33,2.21 -0.58,3.28l0 0z"></path> <path class="fil1" d="M111.01 24.13c1.06,0 2.01,-0.71 2.28,-1.78l2.62 -10.47c0.31,-1.26 -0.45,-2.54 -1.71,-2.85 -1.26,-0.31 -2.54,0.45 -2.85,1.71l-2.62 10.47c-0.37,1.49 0.76,2.92 2.28,2.92l0 0z"></path> <path class="fil1" d="M119.43 35.94c-0.11,1.3 0.84,2.43 2.13,2.55l10.76 0.94c1.25,0.12 2.43,-0.82 2.55,-2.14 0.11,-1.29 -0.85,-2.43 -2.14,-2.54l-10.76 -0.94c-1.31,-0.11 -2.43,0.84 -2.54,2.13z"></path> </g> </g> </g> </g> </svg>