<svg xmlns="http://www.w3.org/2000/svg" xmlns:xlink="http://www.w3.org/1999/xlink" xmlns:xodm="http://www.corel.com/coreldraw/odm/2003" xml:space="preserve" width="0.166661in" height="0.166661in" style="shape-rendering:geometricPrecision; text-rendering:geometricPrecision; image-rendering:optimizeQuality; fill-rule:evenodd; clip-rule:evenodd" viewBox="0 0 166.66 166.66"> <defs> <style type="text/css"> .fil0 {fill:none} .fil1 {fill:#ED8337} .fil2 {fill:#ED8337;fill-rule:nonzero} </style> </defs> <g id="Layer_x0020_1"> <metadata id="CorelCorpID_0Corel-Layer"></metadata> <rect class="fil0" x="-0" y="-0" width="166.67" height="166.67"></rect> <g id="_3057125850144"> <g> <path class="fil1" d="M31.78 110.65c0.7,1.33 0.46,2.96 -0.61,4.02l-4.83 4.82c-1.61,1.61 -1.61,4.24 0,5.86l14.96 14.96c1.56,1.56 4.3,1.56 5.86,0l4.82 -4.82c1.07,-1.07 2.69,-1.31 4.02,-0.61 3.3,1.74 6.72,3.15 10.16,4.2 1.44,0.43 2.43,1.77 2.43,3.28l0 6.83c0,2.28 1.85,4.14 4.14,4.14l10.59 0 0 -25.77c-24.4,-0.01 -44.24,-19.84 -44.24,-44.23 0,-24.38 19.85,-44.22 44.24,-44.23l0 -25.77 -10.59 0c-2.28,0 -4.13,1.86 -4.13,4.14l0 6.83c0,1.5 -0.98,2.83 -2.42,3.28 -3.52,1.09 -6.95,2.5 -10.18,4.2 -1.33,0.7 -2.96,0.46 -4.02,-0.61l-4.82 -4.82c-1.56,-1.56 -4.3,-1.56 -5.86,0l-14.97 14.96c-1.61,1.61 -1.61,4.25 0,5.86l4.83 4.82c1.07,1.06 1.31,2.69 0.61,4.02 -1.71,3.23 -3.12,6.65 -4.2,10.17 -0.44,1.44 -1.77,2.42 -3.28,2.42l-6.83 0c-2.28,0 -4.14,1.85 -4.14,4.14l0 21.17c0,2.28 1.86,4.14 4.14,4.14l6.83 0c1.51,0 2.84,0.99 3.28,2.44 1.06,3.51 2.48,6.91 4.19,10.15l0.02 0z"></path> <path class="fil2" d="M107.55 59.12c-4.82,-4.82 -11.07,-8.2 -18.05,-9.48 4.16,3.87 7.61,8.24 10.2,13 0.1,0.19 0.2,0.38 0.31,0.57l11.04 0c-1.06,-1.45 -2.23,-2.82 -3.5,-4.09zm-5.68 8.09c1.83,4.47 2.92,9.21 3.15,14.12l12.5 0c-0.29,-5.08 -1.69,-9.87 -3.96,-14.12l-11.69 0zm3.15 18.12c-0.23,4.91 -1.32,9.65 -3.15,14.12l11.69 0c2.27,-4.25 3.67,-9.04 3.96,-14.12l-12.5 0zm-5.02 18.12c-0.1,0.19 -0.2,0.38 -0.31,0.57 -2.59,4.75 -6.04,9.13 -10.2,13 6.98,-1.27 13.23,-4.66 18.05,-9.48 1.27,-1.27 2.44,-2.64 3.5,-4.09l-11.04 0 0 0zm-22.83 -53.81c-6.98,1.27 -13.23,4.66 -18.05,9.48 -1.27,1.27 -2.44,2.64 -3.5,4.09l11.04 0c0.1,-0.19 0.2,-0.38 0.31,-0.57 2.59,-4.75 6.04,-9.13 10.19,-13l0 0 0.01 0zm-24.05 17.57c-2.27,4.25 -3.67,9.04 -3.97,14.12l12.5 0c0.23,-4.91 1.32,-9.65 3.15,-14.12l-11.68 0zm-3.97 18.12c0.3,5.08 1.7,9.87 3.97,14.12l11.68 0c-1.83,-4.47 -2.91,-9.21 -3.15,-14.12l-12.5 0zm6.47 18.12c1.06,1.45 2.23,2.82 3.5,4.09 4.81,4.82 11.06,8.21 18.05,9.48 -4.15,-3.87 -7.61,-8.24 -10.2,-13 -0.1,-0.19 -0.2,-0.38 -0.31,-0.57l-11.04 0 0 0zm25.71 11.95c-4.09,-3.54 -7.51,-7.56 -10.1,-11.95l10.1 0 0 11.95zm0 -15.95l0 -14.12 -15.68 0c0.26,4.94 1.46,9.69 3.48,14.12l12.19 0 0.01 0zm0 -18.12l0 -14.12 -12.19 0c-2.02,4.43 -3.23,9.18 -3.48,14.12l15.68 0 -0.01 0zm0 -18.12l-10.1 0c2.59,-4.39 6.02,-8.42 10.1,-11.95l0 11.95zm4 -11.95c4.09,3.53 7.51,7.56 10.11,11.95l-10.11 0 0 -11.95zm0 15.95l0 14.12 15.68 0c-0.26,-4.94 -1.47,-9.69 -3.49,-14.12l-12.19 0 -0 0zm0 18.12l0 14.12 12.19 0c2.02,-4.43 3.23,-9.18 3.49,-14.12l-15.68 0 0 0zm0 18.12l10.11 0c-2.6,4.39 -6.02,8.42 -10.11,11.95l0 -11.95z"></path> <path class="fil1" d="M139.26 43.89c0,4.61 -3.73,8.34 -8.34,8.34 -4.6,0 -8.33,-3.73 -8.33,-8.34 0,-4.61 3.73,-8.34 8.33,-8.34 4.61,0 8.34,3.73 8.34,8.34z"></path> <path class="fil2" d="M121.42 81.33l17.78 0 0 4 -17.78 0c0.04,-0.66 0.05,-1.33 0.05,-2 0,-0.67 -0.02,-1.34 -0.05,-2l0 0zm-5.69 -18.12l13.19 0 0 -11.35 4 0 0 13.35c0,1.11 -0.89,2 -2,2l-13.02 0c-0.65,-1.38 -1.37,-2.71 -2.17,-4zm2.17 36.24l13.02 0c1.11,0 2,0.89 2,2l0 13.35 -4 0 0 -11.35 -13.19 0c0.8,-1.28 1.52,-2.62 2.17,-4l0 0z"></path> <g> <path class="fil1" d="M153.33 83.33c0,-4.61 -3.73,-8.34 -8.34,-8.34 -4.6,0 -8.34,3.73 -8.34,8.34 0,4.61 3.74,8.34 8.34,8.34 4.61,0 8.34,-3.73 8.34,-8.34z"></path> <path class="fil1" d="M139.26 122.78c0,-4.6 -3.73,-8.34 -8.34,-8.34 -4.6,0 -8.33,3.74 -8.33,8.34 0,4.61 3.73,8.34 8.33,8.34 4.61,0 8.34,-3.73 8.34,-8.34z"></path> </g> </g> </g> </g> </svg>