<svg xmlns="http://www.w3.org/2000/svg" xmlns:xlink="http://www.w3.org/1999/xlink" xmlns:svgjs="http://svgjs.dev/svgjs" id="Layer_1" viewBox="0 0 512 512" width="300" height="300"><g width="100%" height="100%" transform="matrix(1,0,0,1,0,0)"><path d="m227.63 271.84c0 4.12-3.33 7.46-7.45 7.46h-152.96c-4.12 0-7.45-3.34-7.45-7.46 0-4.11 3.33-7.45 7.45-7.45h152.96c4.12 0 7.45 3.34 7.45 7.45zm283.87-181.26v323.18c0 4.12-3.34 7.45-7.45 7.45h-179.73v56.04h41.64c4.12 0 7.46 3.34 7.46 7.45 0 4.12-3.34 7.46-7.46 7.46h-219.92c-4.12 0-7.45-3.34-7.45-7.46 0-4.11 3.33-7.45 7.45-7.45h41.64v-56.04h-179.73c-4.11 0-7.45-3.33-7.45-7.45v-323.18c0-4.12 3.34-7.46 7.45-7.46h20.22v-55.82c0-4.12 3.34-7.46 7.46-7.46h440.72c4.11 0 7.45 3.34 7.45 7.46v55.82h20.25c4.11 0 7.45 3.34 7.45 7.46zm-82.62-36.79h-223.49c-4.11 0-7.45 3.34-7.45 7.45 0 4.12 3.34 7.46 7.45 7.46h223.49c4.12 0 7.45-3.34 7.45-7.46 0-4.11-3.33-7.45-7.45-7.45zm-294.52 0h-.36c-4.12 0-7.45 3.34-7.45 7.45 0 4.12 3.33 7.46 7.45 7.46h.36c4.12 0 7.45-3.34 7.45-7.46 0-4.11-3.33-7.45-7.45-7.45zm-25.44 0h-.36c-4.12 0-7.45 3.34-7.45 7.45 0 4.12 3.33 7.46 7.45 7.46h.36c4.12 0 7.46-3.34 7.46-7.46 0-4.11-3.34-7.45-7.46-7.45zm-33.25 7.45c0 4.12 3.34 7.46 7.45 7.46h.36c4.12 0 7.46-3.34 7.46-7.46 0-4.11-3.34-7.45-7.46-7.45h-.36c-4.11 0-7.45 3.34-7.45 7.45zm-32.59 273.97h425.81v-232.59h-425.81zm453.51-237.18h-12.79v244.64c0 4.11-3.34 7.45-7.45 7.45h-440.72c-4.12 0-7.46-3.34-7.46-7.45v-244.64h-12.76v268.2h481.18zm-45.85 102.32c.99 5.73 1.5 11.56 1.5 17.33 0 5.74-.51 11.56-1.5 17.29-.62 3.58-3.72 6.18-7.35 6.18h-9.26c-1.76 6.12-4.2 11.99-7.29 17.57l6.55 6.55c2.56 2.56 2.91 6.59.83 9.56-6.72 9.58-14.97 17.82-24.52 24.49-2.96 2.07-6.98 1.71-9.54-.84l-6.53-6.53c-5.56 3.08-11.44 5.52-17.59 7.28v9.25c0 3.6-2.58 6.69-6.13 7.33-5.66 1.02-11.49 1.54-17.35 1.54-5.85 0-11.69-.52-17.34-1.54-3.55-.64-6.13-3.73-6.13-7.33v-9.24c-6.15-1.77-12.04-4.21-17.59-7.29l-6.53 6.53c-2.56 2.55-6.58 2.91-9.54.84-9.55-6.67-17.8-14.91-24.53-24.49-2.08-2.97-1.73-7 .83-9.56l6.56-6.55c-3.1-5.58-5.54-11.45-7.29-17.57h-9.27c-3.62 0-6.72-2.6-7.34-6.18-.99-5.73-1.5-11.55-1.5-17.29 0-5.77.51-11.6 1.5-17.33.62-3.57 3.72-6.18 7.34-6.18h9.27c1.75-6.11 4.19-11.99 7.29-17.56l-6.56-6.56c-2.56-2.56-2.91-6.59-.83-9.55 6.68-9.52 14.93-17.76 24.51-24.48 2.96-2.08 6.99-1.73 9.56.83l6.53 6.53c5.59-3.09 11.47-5.52 17.59-7.27v-9.26c0-3.62 2.6-6.72 6.17-7.35 11.4-1.98 23.2-1.98 34.61 0 3.57.63 6.17 3.72 6.17 7.35v9.26c6.11 1.75 12 4.18 17.58 7.27l6.54-6.53c2.56-2.56 6.59-2.91 9.55-.83 9.59 6.72 17.83 14.96 24.51 24.47 2.08 2.97 1.73 7-.83 9.56l-6.55 6.56c3.09 5.57 5.53 11.45 7.29 17.56h9.26c3.63 0 6.73 2.61 7.35 6.18zm-98.18-21.33c-21.31 0-38.65 17.34-38.65 38.66 0 21.29 17.34 38.62 38.65 38.62 21.32 0 38.66-17.33 38.66-38.62 0-21.32-17.34-38.66-38.66-38.66zm-208.87 115.21h-76.47c-4.12 0-7.45 3.34-7.45 7.46 0 4.11 3.33 7.45 7.45 7.45h76.47c4.11 0 7.45-3.34 7.45-7.45 0-4.12-3.34-7.46-7.45-7.46zm76.49-59.65h-152.96c-4.12 0-7.45 3.33-7.45 7.45 0 4.11 3.33 7.45 7.45 7.45h152.96c4.12 0 7.45-3.34 7.45-7.45 0-4.12-3.33-7.45-7.45-7.45zm-53.86-25.67c1.46 1.46 3.37 2.19 5.28 2.19 1.9 0 3.81-.73 5.27-2.18l29.78-29.76c1.4-1.39 2.18-3.29 2.19-5.27 0-1.97-.79-3.87-2.19-5.27l-29.78-29.78c-2.91-2.91-7.63-2.91-10.54 0s-2.91 7.63 0 10.54l24.51 24.51-24.51 24.48c-2.91 2.91-2.91 7.63-.01 10.54zm-74.58.01c1.45 1.45 3.36 2.18 5.26 2.18 1.91 0 3.82-.73 5.28-2.19 2.91-2.91 2.9-7.63-.01-10.54l-24.51-24.48 24.51-24.51c2.91-2.91 2.91-7.63 0-10.54s-7.63-2.91-10.54 0l-29.78 29.78c-1.4 1.4-2.18 3.3-2.18 5.27 0 1.98.78 3.88 2.18 5.27zm25.07 4.22c.99.44 2.02.65 3.03.65 2.86 0 5.58-1.65 6.81-4.43l28.91-64.91c1.68-3.76-.01-8.16-3.77-9.84-3.76-1.67-8.17.02-9.84 3.78l-28.91 64.91c-1.68 3.76.01 8.16 3.77 9.84z" fill="#ed8337" fill-opacity="1" data-original-color="#000000ff" stroke="none" stroke-opacity="1"></path></g></svg>